<?xml version="1.0" encoding="UTF-8" standalone="no"?>
<svg
   xmlns:dc="http://purl.org/dc/elements/1.1/"
   xmlns:cc="http://creativecommons.org/ns#"
   xmlns:rdf="http://www.w3.org/1999/02/22-rdf-syntax-ns#"
   xmlns:svg="http://www.w3.org/2000/svg"
   xmlns="http://www.w3.org/2000/svg"
   xmlns:sodipodi="http://sodipodi.sourceforge.net/DTD/sodipodi-0.dtd"
   xmlns:inkscape="http://www.inkscape.org/namespaces/inkscape"
   id="emoji"
   viewBox="0 0 72 72"
   version="1.1"
   sodipodi:docname="coal-plant.svg"
   inkscape:version="1.0.2 (e86c870879, 2021-01-15)">
  <metadata
     id="metadata33">
    <rdf:RDF>
      <cc:Work
         rdf:about="">
        <dc:format>image/svg+xml</dc:format>
        <dc:type
           rdf:resource="http://purl.org/dc/dcmitype/StillImage" />
        <dc:title />
      </cc:Work>
    </rdf:RDF>
  </metadata>
  <defs
     id="defs31" />
  <sodipodi:namedview
     pagecolor="#ffffff"
     bordercolor="#666666"
     borderopacity="1"
     objecttolerance="10"
     gridtolerance="10"
     guidetolerance="10"
     inkscape:pageopacity="0"
     inkscape:pageshadow="2"
     inkscape:window-width="1920"
     inkscape:window-height="1136"
     id="namedview29"
     showgrid="false"
     inkscape:zoom="19.463548"
     inkscape:cx="44.330407"
     inkscape:cy="46.041766"
     inkscape:window-x="0"
     inkscape:window-y="27"
     inkscape:window-maximized="1"
     inkscape:current-layer="emoji"
     inkscape:document-rotation="0" />
  <g
     id="g894"
     transform="translate(-6.111993,-0.3795657)">
    <path
       fill="#d0cfce"
       d="M 33,66 V 30 H 16 c 3,9.2571 0,29.8286 -5,36 z"
       id="path12" />
    <path
       fill="#9b9b9a"
       d="M 38.8134,49.9292 C 37.7017,42.6331 37.6422,34.7977 39.197,30 H 33 V 66 H 44.197 C 41.247681,67.779078 38.833278,49.907638 38.8134,49.9292 Z"
       id="path10"
       sodipodi:nodetypes="cccccc" />
  </g>
  <path
     fill="#ffffff"
     d="m 16.758007,29.746634 c -0.01,0 -0.02,-0.02 -0.02,-0.02 a 4.3973,4.3973 0 0 1 -0.52,-0.36 c -0.01,-0.01 -0.02,-0.01 -0.03,-0.02 a 6.0978,6.0978 0 0 1 -1.83,-2.6 5.9978,5.9978 0 0 1 3.16,-7.51 3.9769,3.9769 0 0 1 6.76,-2.13 5.015,5.015 0 0 1 2.72,-2.41 4.9237,4.9237 0 0 1 3.28,-0.02 4.9749,4.9749 0 0 1 7.3,-5.2099997 7.9429,7.9429 0 0 1 2.83,-1.77 7.846,7.846 0 0 1 2.67,-0.48 5.88,5.88 0 0 1 2.03,-1.23 6.0027,6.0027 0 0 1 7.69,3.58 c 0.06,0.17 0.11,0.34 0.16,0.5199997 a 3.5285,3.5285 0 0 1 0.56,0.14 3.9477,3.9477 0 0 1 2.53,2.42 4.0017,4.0017 0 0 1 -2.39,5.12 3.9424,3.9424 0 0 1 -2.91,-0.08 7.9818,7.9818 0 0 1 -9.79,5.21 4.96,4.96 0 0 1 -8.71,2.36 4.9417,4.9417 0 0 1 -6.82,1.99 5.9139,5.9139 0 0 1 -2.06,2.41"
     id="path2" />
  <path
     fill="#ffffff"
     d="m 16.758007,29.746634 c -0.01,0 -0.02,-0.02 -0.02,-0.02 a 4.3973,4.3973 0 0 1 -0.52,-0.36 c -0.01,-0.01 -0.02,-0.01 -0.03,-0.02 a 6.0978,6.0978 0 0 1 -1.83,-2.6 5.9978,5.9978 0 0 1 3.16,-7.51 3.9769,3.9769 0 0 1 6.76,-2.13 5.015,5.015 0 0 1 2.72,-2.41 4.9237,4.9237 0 0 1 3.28,-0.02 4.9749,4.9749 0 0 1 7.3,-5.2099997 7.9429,7.9429 0 0 1 2.83,-1.77 7.846,7.846 0 0 1 2.67,-0.48 5.88,5.88 0 0 1 2.03,-1.23 6.0027,6.0027 0 0 1 7.69,3.58 c 0.06,0.17 0.11,0.34 0.16,0.5199997 a 3.5285,3.5285 0 0 1 0.56,0.14 3.9477,3.9477 0 0 1 2.53,2.42 4.0017,4.0017 0 0 1 -2.39,5.12 3.9424,3.9424 0 0 1 -2.91,-0.08 7.9818,7.9818 0 0 1 -9.79,5.21 4.96,4.96 0 0 1 -8.71,2.36 4.9417,4.9417 0 0 1 -6.82,1.99 5.9139,5.9139 0 0 1 -2.06,2.41"
     id="path4" />
  <path
     fill="#9b9b9a"
     d="m 70.24,10.5062 a 0.8469,0.8469 0 0 0 -0.17,-0.04 c -0.01,-0.05 -0.03,-0.1 -0.04,-0.14 a 1.68,1.68 0 0 1 0.21,0.18 z"
     id="path6" />
  <g
     id="g962"
     transform="matrix(1,0,0,1.4602522,-49.961439,-0.22400974)">
    <rect
       x="108.60752"
       y="8.3709822"
       width="7.2211709"
       height="4"
       fill="#ea5a47"
       id="rect2070"
       style="stroke-width:1.09706" />
    <rect
       style="fill:none;fill-opacity:1;stroke:#000000;stroke-width:1.87661;stroke-linejoin:round;stroke-miterlimit:4;stroke-dasharray:none;stroke-opacity:1;paint-order:markers stroke fill"
       id="rect2068"
       width="5.9407849"
       height="37.883278"
       x="109.21603"
       y="5.4719858"
       ry="0" />
  </g>
  <g
     id="g938"
     transform="matrix(0.88956736,0,0,0.88956736,-13.863625,7.4283537)">
    <path
       style="fill:#4d4d4d;fill-opacity:1;stroke:#000000;stroke-width:1px;stroke-linecap:butt;stroke-linejoin:miter;stroke-opacity:1"
       d="M 69.981465,65.992274 81.932233,48.018906 93.551319,66.034643 Z"
       id="path887"
       sodipodi:nodetypes="cccc" />
    <path
       style="fill:#4d4d4d;fill-opacity:1;stroke:#000000;stroke-width:1px;stroke-linecap:butt;stroke-linejoin:miter;stroke-opacity:1"
       d="M 62.289952,66.001941 72.609309,54.629823 82.031266,66.04431 Z"
       id="path887-3"
       sodipodi:nodetypes="cccc" />
  </g>
  <g
     id="g928"
     transform="translate(-6.111993,-0.3795657)">
    <path
       fill="none"
       stroke="#000000"
       stroke-linecap="round"
       stroke-linejoin="round"
       stroke-width="2"
       d="m 22.87,30 c -0.01,0 -0.02,-0.02 -0.02,-0.02 A 4.3973,4.3973 0 0 1 22.33,29.62 C 22.32,29.61 22.31,29.61 22.3,29.6 a 6.0978,6.0978 0 0 1 -1.83,-2.6 5.9978,5.9978 0 0 1 3.16,-7.51 3.9769,3.9769 0 0 1 6.76,-2.13 5.015,5.015 0 0 1 2.72,-2.41 4.9237,4.9237 0 0 1 3.28,-0.02 4.9749,4.9749 0 0 1 7.3,-5.21 7.9429,7.9429 0 0 1 2.83,-1.77 7.846,7.846 0 0 1 2.67,-0.48 5.88,5.88 0 0 1 2.03,-1.23 6.0027,6.0027 0 0 1 7.69,3.58 c 0.06,0.17 0.11,0.34 0.16,0.52 a 3.5285,3.5285 0 0 1 0.56,0.14 3.9477,3.9477 0 0 1 2.53,2.42 4.0017,4.0017 0 0 1 -2.39,5.12 3.9424,3.9424 0 0 1 -2.91,-0.08 7.9818,7.9818 0 0 1 -9.79,5.21 4.96,4.96 0 0 1 -8.71,2.36 4.9417,4.9417 0 0 1 -6.82,1.99 5.9139,5.9139 0 0 1 -2.06,2.41"
       id="path19"
       style="fill:#ccc9b5;fill-opacity:1" />
  </g>
  <path
     fill="none"
     stroke="#000000"
     stroke-linecap="round"
     stroke-linejoin="round"
     stroke-width="2"
     d="m 38.084907,65.620434 c -5,-6.1714 -8,-26.7429 -5,-36 h -23.1969 c 3,9.2571 0,29.8286 -5,36 z"
     id="path21" />
  <rect
     style="fill:#4d4d4d;fill-opacity:1;stroke:#000000;stroke-width:2.95737;stroke-linejoin:round;stroke-opacity:1;paint-order:markers stroke fill"
     id="rect931"
     width="24.134634"
     height="16.845562"
     x="14.544498"
     y="48.270676"
     ry="7.9780617"
     rx="0" />
  <rect
     style="fill:#808080;stroke:none;stroke-width:2.70752;stroke-linejoin:round;paint-order:markers stroke fill"
     id="rect854"
     width="12.472363"
     height="16.944353"
     x="14.552274"
     y="48.160698"
     ry="0"
     rx="0" />
  <path
     style="fill:none;stroke:#000000;stroke-width:1.6;stroke-linecap:round;stroke-linejoin:miter;stroke-miterlimit:4;stroke-dasharray:none;stroke-opacity:1"
     d="m 37.868735,44.420445 5.236702,0.02375 13.611224,5.191924"
     id="path856"
     sodipodi:nodetypes="ccc" />
</svg>
