<?xml version="1.0" encoding="UTF-8" standalone="no"?>
<svg
   id="emoji"
   viewBox="0 0 72 72"
   version="1.1"
   sodipodi:docname="coal.svg"
   inkscape:version="1.1.1 (1:1.1+202109281954+c3084ef5ed)"
   xmlns:inkscape="http://www.inkscape.org/namespaces/inkscape"
   xmlns:sodipodi="http://sodipodi.sourceforge.net/DTD/sodipodi-0.dtd"
   xmlns="http://www.w3.org/2000/svg"
   xmlns:svg="http://www.w3.org/2000/svg">
  <defs
     id="defs19" />
  <sodipodi:namedview
     id="namedview17"
     pagecolor="#ffffff"
     bordercolor="#666666"
     borderopacity="1.0"
     inkscape:pageshadow="2"
     inkscape:pageopacity="0.0"
     inkscape:pagecheckerboard="0"
     showgrid="false"
     inkscape:zoom="7.316591"
     inkscape:cx="56.378715"
     inkscape:cy="15.581027"
     inkscape:window-width="1920"
     inkscape:window-height="1056"
     inkscape:window-x="0"
     inkscape:window-y="0"
     inkscape:window-maximized="1"
     inkscape:current-layer="color" />
  <g
     id="color">
    <path
       fill="#d0cfce"
       d="M55.785,34.99a.9992.9992,0,0,1,.1055,1.041l-3.8946,8.0626a1.0021,1.0021,0,0,1-.706.5468L40.492,46.7783a1.007,1.007,0,0,1-.7939-.1806L16.2137,29.02a1.0007,1.0007,0,0,1-.1758-1.4316l2.4385-2.9971a.9981.9981,0,0,1,.3252-.2627l18.3057-9.2217a1.0147,1.0147,0,0,1,.6572-.0849l3.8193.8066a.9974.9974,0,0,1,.6367.4424l2.6731,4.144,1.6213,2.4905Z"
       id="path2"
       style="fill:#1a1a1a" />
    <polygon
       fill="#3f3f3f"
       points="26.692 56 46.788 56 40.317 45.819 16.943 28.219 15.814 33.046 26.692 56"
       id="polygon4"
       style="fill:#000000" />
    <polygon
       fill="#9b9b9a"
       points="54.78 36.031 56.128 47.544 54.469 56 46.788 56 40.317 45.819 50.939 43.94 54.78 36.031"
       id="polygon6"
       style="fill:#1a1a1a" />
    <path
       style="opacity:1;fill:#4d4d4d;fill-opacity:1;stroke:none;stroke-width:1px;stroke-linecap:butt;stroke-linejoin:miter;stroke-opacity:1"
       d="m 29.480949,37.021649 19.077666,-9.383613 5.611969,7.15046 L 51.095,43.659 40.298,45.797 Z"
       id="path1049"
       sodipodi:nodetypes="cccccc" />
    <path
       style="opacity:1;fill:#4d4d4d;fill-opacity:1;stroke:none;stroke-width:1px;stroke-linecap:butt;stroke-linejoin:miter;stroke-opacity:1"
       d="M 17.749606,27.488517 37.558,16 l 3.819,0.807 2.643,4.11 -19.198611,12.662972 z"
       id="path1049-6"
       sodipodi:nodetypes="cccccc" />
  </g>
  <g
     id="line">
    <polyline
       fill="none"
       stroke="#000"
       stroke-linecap="round"
       stroke-linejoin="round"
       stroke-width="2"
       points="45.797 23.608 54.99 35.597 56.128 47.239 54.469 56 26.692 56 16 32.86 16.813 28.219 19.252 25.222 37.558 16 41.377 16.807 44.02 20.917 39.008 24.27"
       id="polyline9" />
    <polyline
       fill="none"
       stroke="#000"
       stroke-linecap="round"
       stroke-linejoin="round"
       stroke-width="2"
       points="47.359 56 40.298 45.797 16.813 28.219"
       id="polyline11" />
    <polyline
       fill="none"
       stroke="#000"
       stroke-linecap="round"
       stroke-linejoin="round"
       stroke-width="2"
       points="54.99 35.597 51.095 43.659 40.298 45.797"
       id="polyline13" />
  </g>
</svg>
