<?xml version="1.0" encoding="UTF-8" standalone="no"?>
<svg
   id="emoji"
   viewBox="0 0 72 72"
   version="1.1"
   sodipodi:docname="electricity-greenwashing.svg"
   inkscape:version="1.1.1 (1:1.1+202109281954+c3084ef5ed)"
   xmlns:inkscape="http://www.inkscape.org/namespaces/inkscape"
   xmlns:sodipodi="http://sodipodi.sourceforge.net/DTD/sodipodi-0.dtd"
   xmlns="http://www.w3.org/2000/svg"
   xmlns:svg="http://www.w3.org/2000/svg"
   xmlns:rdf="http://www.w3.org/1999/02/22-rdf-syntax-ns#"
   xmlns:cc="http://creativecommons.org/ns#"
   xmlns:dc="http://purl.org/dc/elements/1.1/">
  <metadata
     id="metadata38">
    <rdf:RDF>
      <cc:Work
         rdf:about="">
        <dc:format>image/svg+xml</dc:format>
        <dc:type
           rdf:resource="http://purl.org/dc/dcmitype/StillImage" />
      </cc:Work>
    </rdf:RDF>
  </metadata>
  <defs
     id="defs36" />
  <sodipodi:namedview
     pagecolor="#ffffff"
     bordercolor="#666666"
     borderopacity="1"
     objecttolerance="10"
     gridtolerance="10"
     guidetolerance="10"
     inkscape:pageopacity="0"
     inkscape:pageshadow="2"
     inkscape:window-width="1920"
     inkscape:window-height="1080"
     id="namedview34"
     showgrid="false"
     inkscape:zoom="5.9146751"
     inkscape:cx="5.1566653"
     inkscape:cy="35.67398"
     inkscape:window-x="0"
     inkscape:window-y="0"
     inkscape:window-maximized="1"
     inkscape:current-layer="color"
     inkscape:pagecheckerboard="0" />
  <g
     id="color"
     transform="matrix(-0.94836038,-0.31719488,-0.31719488,0.94836038,71.13231,3.9030699)">
    <g
       id="hair-6"
       transform="matrix(-0.39913717,-0.13349806,-0.13349806,0.39913717,62.628814,11.509337)" />
    <g
       id="skin-7"
       transform="matrix(-0.39913717,-0.13349806,-0.13349806,0.39913717,62.628814,11.509337)" />
    <g
       id="skin-shadow-5"
       transform="matrix(-0.39913717,-0.13349806,-0.13349806,0.39913717,62.628814,11.509337)" />
    <g
       id="hair-2"
       transform="matrix(-0.37101807,-0.12409315,-0.12409315,0.37101807,68.52853,25.22881)" />
    <g
       id="skin-9"
       transform="matrix(-0.37101807,-0.12409315,-0.12409315,0.37101807,68.52853,25.22881)" />
    <g
       id="skin-shadow-1"
       transform="matrix(-0.37101807,-0.12409315,-0.12409315,0.37101807,68.52853,25.22881)" />
    <g
       id="line-2"
       transform="matrix(0.37101807,0.12409316,-0.12409316,0.37101807,99.321637,-32.239763)" />
    <g
       id="g1759"
       transform="matrix(0.38654128,0.12928516,-0.12928516,0.38654128,38.220922,10.304585)">
      <g
         id="color-5">
        <path
           fill="#92d3f5"
           stroke="none"
           d="M 45.8565,36.851 C 38.8077,43.3665 33.3797,47.2823 29.9862,49.4583 l -7.6389,-7.6751 c 2.1789,-3.3949 6.0918,-8.8147 12.5932,-15.8482 4.7694,-5.1598 9.7635,-9.9137 13.8015,-12.4485 2.9438,-1.8479 6.597,-1.5717 8.8659,0.6971 v 0 c 2.2688,2.2688 2.5449,5.9222 0.697,8.8659 -2.5347,4.038 -7.2887,9.0321 -12.4484,13.8015"
           id="path4"
           style="fill:#666666" />
        <polygon
           fill="#61b2e4"
           stroke="none"
           points="26.8108,35.5092 36.0461,44.7445 30.2121,48.8995 22.9382,41.5646 "
           id="polygon6"
           style="fill:#999999" />
      </g>
      <path
         style="fill:none;stroke:#000000;stroke-width:2.5561;stroke-linecap:round;stroke-linejoin:miter;stroke-miterlimit:4;stroke-dasharray:none;stroke-opacity:1"
         d="m 15.133604,57.685147 c 0,0 5.027362,0.590789 9.322796,-3.883747"
         id="path1698-3"
         sodipodi:nodetypes="cc" />
      <path
         fill="none"
         stroke="#000000"
         stroke-linecap="round"
         stroke-linejoin="round"
         stroke-miterlimit="10"
         stroke-width="2.0863"
         d="M 21.8926,30.0285"
         id="path12" />
      <path
         fill="none"
         stroke="#000000"
         stroke-linecap="round"
         stroke-linejoin="round"
         stroke-miterlimit="10"
         stroke-width="2.0863"
         d="M 20.9453,44.2726"
         id="path14" />
      <path
         fill="none"
         stroke="#000000"
         stroke-linecap="round"
         stroke-linejoin="round"
         stroke-miterlimit="10"
         stroke-width="2.0863"
         d="M 33.8974,48.8332"
         id="path16-7" />
      <path
         fill="none"
         stroke="#000000"
         stroke-linecap="round"
         stroke-linejoin="round"
         stroke-miterlimit="10"
         stroke-width="2.0863"
         d="M 24.3999,39.3357"
         id="path18" />
      <path
         fill="none"
         stroke="#000000"
         stroke-linecap="round"
         stroke-linejoin="round"
         stroke-miterlimit="10"
         stroke-width="2.0863"
         d="M 24.3511,39.4065"
         id="path20-0" />
      <path
         fill="none"
         stroke="#000000"
         stroke-linecap="round"
         stroke-linejoin="round"
         stroke-miterlimit="10"
         stroke-width="2.0863"
         d="M 33.8788,48.9342"
         id="path22-9" />
      <path
         fill="none"
         stroke="#000000"
         stroke-linecap="round"
         stroke-linejoin="round"
         stroke-miterlimit="10"
         stroke-width="2.0863"
         d="M 24.1008,39.1562"
         id="path24" />
      <path
         fill="none"
         stroke="#000000"
         stroke-linecap="round"
         stroke-linejoin="round"
         stroke-miterlimit="10"
         stroke-width="2"
         d="M 45.8565,36.851 C 38.8077,43.3665 33.3797,47.2823 29.9862,49.4583 l -7.6389,-7.6751 c 2.1789,-3.3949 6.0918,-8.8147 12.5932,-15.8482 4.7694,-5.1598 9.7635,-9.9137 13.8015,-12.4485 2.9438,-1.8479 6.597,-1.5717 8.8659,0.6971 v 0 c 2.2688,2.2688 2.5449,5.9222 0.697,8.8659 -2.5347,4.038 -7.2887,9.0321 -12.4484,13.8015"
         id="path26"
         style="stroke-width:2.45345;stroke-miterlimit:10;stroke-dasharray:none" />
      <line
         x1="27.430401"
         x2="36.569099"
         y1="35.256901"
         y2="44.395802"
         fill="none"
         stroke="#000000"
         stroke-linecap="round"
         stroke-linejoin="round"
         stroke-miterlimit="10"
         stroke-width="2"
         id="line30"
         style="stroke-width:2.45345;stroke-miterlimit:10;stroke-dasharray:none" />
      <path
         style="fill:#5c9e31;fill-opacity:1;stroke:#000000;stroke-width:2.5561;stroke-linecap:round;stroke-linejoin:round;stroke-miterlimit:4;stroke-dasharray:none;stroke-opacity:1"
         d="m 15.716045,35.332615 20.113706,20.113706 c 0,0 -7.444678,7.501606 -9.56164,8.729145 -3.0781,1.784863 -8.452894,0.733987 -8.452894,0.733987 L 13.347855,60.442092 12.565418,59.659654 11.62411,58.718347 -4.132385,42.961852 c 0,0 7.6446351,1.201709 10.1271273,-0.326229 2.4824922,-1.527934 9.7213027,-7.303008 9.7213027,-7.303008 z"
         id="path1696"
         sodipodi:nodetypes="ccscccccsc" />
      <path
         style="fill:none;stroke:#000000;stroke-width:2.5561;stroke-linecap:round;stroke-linejoin:miter;stroke-miterlimit:4;stroke-dasharray:none;stroke-opacity:1"
         d="m 12.53383,59.111974 c 0,0 5.027362,0.590789 9.322796,-3.883747"
         id="path1698"
         sodipodi:nodetypes="cc" />
      <path
         style="fill:none;stroke:#000000;stroke-width:2.5561;stroke-linecap:round;stroke-linejoin:miter;stroke-miterlimit:4;stroke-dasharray:none;stroke-opacity:1"
         d="m 6.2797405,52.704167 c 0,0 2.1936701,0.458737 3.8436185,-1.95295"
         id="path1698-6"
         sodipodi:nodetypes="cc" />
      <g
         id="hair-7"
         transform="matrix(2.4534518,-3.3250832e-8,3.3250832e-8,2.4534518,-188.47167,-53.056114)" />
      <g
         id="skin-5"
         transform="matrix(2.4534518,-3.3250832e-8,3.3250832e-8,2.4534518,-188.47167,-53.056114)" />
      <g
         id="skin-shadow-3"
         transform="matrix(2.4534518,-3.3250832e-8,3.3250832e-8,2.4534518,-188.47167,-53.056114)" />
    </g>
    <path
       style="fill:#5c9e31;fill-opacity:1;stroke:#000000;stroke-width:1.26119;stroke-linecap:square;stroke-linejoin:round;stroke-miterlimit:4;stroke-dasharray:none;stroke-opacity:1"
       d="m 28.444393,49.988178 c -1.025979,2.85739 -2.95901,4.473631 -3.802894,5.598261 -1.367465,1.8224 -1.020434,3.73807 0.313477,4.184218 1.333912,0.446149 2.814363,-0.788732 3.003503,-3.188062 0.110947,-1.407472 -0.574414,-3.532787 0.485914,-6.594417 z"
       id="path1761"
       sodipodi:nodetypes="csssc" />
    <g
       id="color-3"
       transform="matrix(-0.9483604,-0.31719491,-0.31719491,0.9483604,62.926609,17.035564)">
      <path
         fill="#fcea2b"
         stroke="none"
         d="M 48.143,3.7261 16.316,37.8507 c -0.6029,0.6465 -0.1141,1.6589 0.801,1.6589 H 36.2236 L 19.1503,67.0482 c -0.1662,0.2681 0.215,0.5364 0.4424,0.3114 l 36.0628,-35.704 c 0.6436,-0.6372 0.1626,-1.6882 -0.7725,-1.6882 H 36.3826 Z"
         id="path2-6" />
    </g>
    <path
       style="fill:#5c9e31;fill-opacity:1;stroke:none;stroke-width:0.999999px;stroke-linecap:butt;stroke-linejoin:miter;stroke-opacity:1"
       d="M 35.134353,48.4519 28.239984,46.492964 C 20.98893,41.982775 25.715816,40.554846 20.266912,38.789518 15.770861,38.127491 18.871044,34.04703 18.871044,34.04703 L 15.842381,5.9698574 Z"
       id="path1839"
       sodipodi:nodetypes="cccccc" />
    <g
       id="line-5"
       transform="matrix(-0.9483604,-0.31719491,-0.31719491,0.9483604,62.926609,17.035564)">
      <path
         fill="none"
         stroke="#000000"
         stroke-linecap="round"
         stroke-linejoin="round"
         stroke-miterlimit="10"
         stroke-width="2"
         d="M 48.1628,4.4406 16.3224,37.7817 c -0.6174,0.6465 -0.1168,1.6589 0.8201,1.6589 H 36.2254 L 17.9214,68.2739 55.6483,31.7954 c 0.659,-0.6372 0.1665,-1.6882 -0.791,-1.6882 H 36.3846 Z"
         id="path8-6" />
    </g>
    <g
       id="color-2"
       transform="matrix(-0.94836038,-0.31719488,-0.31719488,0.94836038,104.41452,38.031352)" />
    <g
       id="hair-1"
       transform="matrix(-0.94836038,-0.31719488,-0.31719488,0.94836038,104.41452,38.031352)" />
    <g
       id="skin-2"
       transform="matrix(-0.94836038,-0.31719488,-0.31719488,0.94836038,104.41452,38.031352)" />
    <g
       id="skin-shadow-7"
       transform="matrix(-0.94836038,-0.31719488,-0.31719488,0.94836038,104.41452,38.031352)" />
  </g>
  <g
     inkscape:groupmode="layer"
     id="layer2"
     inkscape:label="elec"
     transform="matrix(0.39122055,0,0,0.39122055,19.225761,2.9070904)" />
  <g
     id="hair" />
  <g
     id="skin" />
  <g
     id="skin-shadow" />
</svg>
