<?xml version="1.0" encoding="UTF-8" standalone="no"?>
<svg
   xmlns:dc="http://purl.org/dc/elements/1.1/"
   xmlns:cc="http://creativecommons.org/ns#"
   xmlns:rdf="http://www.w3.org/1999/02/22-rdf-syntax-ns#"
   xmlns:svg="http://www.w3.org/2000/svg"
   xmlns="http://www.w3.org/2000/svg"
   xmlns:sodipodi="http://sodipodi.sourceforge.net/DTD/sodipodi-0.dtd"
   xmlns:inkscape="http://www.inkscape.org/namespaces/inkscape"
   id="emoji"
   viewBox="0 0 72 72"
   version="1.1"
   sodipodi:docname="greenwashing.svg"
   inkscape:version="1.0.2 (e86c870879, 2021-01-15)">
  <metadata
     id="metadata38">
    <rdf:RDF>
      <cc:Work
         rdf:about="">
        <dc:format>image/svg+xml</dc:format>
        <dc:type
           rdf:resource="http://purl.org/dc/dcmitype/StillImage" />
        <dc:title></dc:title>
      </cc:Work>
    </rdf:RDF>
  </metadata>
  <defs
     id="defs36" />
  <sodipodi:namedview
     pagecolor="#ffffff"
     bordercolor="#666666"
     borderopacity="1"
     objecttolerance="10"
     gridtolerance="10"
     guidetolerance="10"
     inkscape:pageopacity="0"
     inkscape:pageshadow="2"
     inkscape:window-width="1920"
     inkscape:window-height="1136"
     id="namedview34"
     showgrid="false"
     inkscape:zoom="33.458455"
     inkscape:cx="41.245904"
     inkscape:cy="19.261726"
     inkscape:window-x="0"
     inkscape:window-y="0"
     inkscape:window-maximized="1"
     inkscape:current-layer="g1759" />
  <g
     id="color"
     transform="matrix(-0.94836038,-0.31719488,-0.31719488,0.94836038,81.007892,13.18816)">
    <path
       fill="#d0cfce"
       stroke="none"
       d="m 40.949418,39.756135 12.358509,4.296234 c 1.25625,0.436739 2.426757,1.087056 3.453698,1.932196 2.923818,2.406545 8.405249,7.364972 4.760686,7.990909 C 56.685362,54.806237 32.820882,47.704538 25.844932,45.507402 18.868879,43.310267 11.355966,39.162079 6.6648748,35.647433 2.5589852,32.571089 9.0017209,33.649914 9.0017209,33.649914 c 0,0 7.4137301,1.091744 10.4619441,1.874686 l 3.413171,0.08699"
       id="path2"
       style="fill:#b1cc33;fill-opacity:1;stroke-width:1.04184" />
    <polyline
       fill="#9b9b9a"
       stroke="none"
       points="22.9375,29.4234 14.6898,16.1089 10.3451,14.4641 11.7188,27.9556"
       id="polyline4"
       style="fill:#666666;fill-opacity:1"
       transform="matrix(1.0418395,0,0,1.0418395,-3.9928312,4.8179422)" />
    <polyline
       fill="#9b9b9a"
       stroke="none"
       points="43.7923,39.9508 26.1047,22.6204 23.5352,22.5103 33.443,38.1153"
       id="polyline6"
       style="fill:#5c9e31;fill-opacity:1"
       transform="matrix(1.0418395,0,0,1.0418395,-3.9928312,4.8179422)" />
    <path
       fill="#9b9b9a"
       stroke="none"
       stroke-linecap="round"
       stroke-linejoin="round"
       stroke-miterlimit="10"
       stroke-width="1.62496"
       d="M 17.442496,33.943192"
       id="path8" />
    <path
       fill="#9b9b9a"
       stroke="none"
       stroke-linecap="round"
       stroke-linejoin="round"
       stroke-miterlimit="10"
       stroke-width="1.62496"
       d="M 8.8627395,32.526186"
       id="path10" />
    <path
       style="fill:#999999;fill-opacity:1;stroke:none;stroke-width:1.04184px;stroke-linecap:butt;stroke-linejoin:miter;stroke-opacity:1"
       d="m 21.428279,35.972348 -6.952342,-0.972827 -8.7672473,-1.042805 4.8177783,3.722214 13.89746,7.231737 c 0,0 1.17804,-1.499567 0.839927,-2.195103 -0.33811,-0.695534 -1.820331,-1.074462 -2.123123,-1.578939 -0.302794,-0.50448 0.272635,-1.070387 0.117919,-1.627434 -0.154711,-0.557046 -1.977961,-0.969675 -1.815724,-1.623694 0.197823,-0.797475 -0.01465,-1.913149 -0.01465,-1.913149 z"
       id="path881"
       sodipodi:nodetypes="cccccssssc" />
    <g
       id="hair-6"
       transform="matrix(-0.39913717,-0.13349806,-0.13349806,0.39913717,62.628814,11.509337)" />
    <g
       id="skin-7"
       transform="matrix(-0.39913717,-0.13349806,-0.13349806,0.39913717,62.628814,11.509337)" />
    <g
       id="skin-shadow-5"
       transform="matrix(-0.39913717,-0.13349806,-0.13349806,0.39913717,62.628814,11.509337)" />
    <g
       id="hair-2"
       transform="matrix(-0.37101807,-0.12409315,-0.12409315,0.37101807,68.52853,25.22881)" />
    <g
       id="skin-9"
       transform="matrix(-0.37101807,-0.12409315,-0.12409315,0.37101807,68.52853,25.22881)" />
    <g
       id="skin-shadow-1"
       transform="matrix(-0.37101807,-0.12409315,-0.12409315,0.37101807,68.52853,25.22881)" />
    <g
       id="line-2"
       transform="matrix(-0.37101807,-0.12409315,-0.12409315,0.37101807,61.852828,9.8468166)">
      <g
         id="g1759"
         transform="matrix(1.0418395,0,0,1.0418395,11.801774,-2.3056011)">
        <g
           id="color-5">
          <path
             fill="#92d3f5"
             stroke="none"
             d="M 45.8565,36.851 C 38.8077,43.3665 33.3797,47.2823 29.9862,49.4583 l -7.6389,-7.6751 c 2.1789,-3.3949 6.0918,-8.8147 12.5932,-15.8482 4.7694,-5.1598 9.7635,-9.9137 13.8015,-12.4485 2.9438,-1.8479 6.597,-1.5717 8.8659,0.6971 v 0 c 2.2688,2.2688 2.5449,5.9222 0.697,8.8659 -2.5347,4.038 -7.2887,9.0321 -12.4484,13.8015"
             id="path4"
             style="fill:#666666" />
          <polygon
             fill="#61b2e4"
             stroke="none"
             points="30.2121,48.8995 22.9382,41.5646 26.8108,35.5092 36.0461,44.7445 "
             id="polygon6"
             style="fill:#999999" />
        </g>
        <path
           style="fill:none;stroke:#000000;stroke-width:2.5561;stroke-linecap:round;stroke-linejoin:miter;stroke-miterlimit:4;stroke-dasharray:none;stroke-opacity:1"
           d="m 15.133604,57.685147 c 0,0 5.027362,0.590789 9.322796,-3.883747"
           id="path1698-3"
           sodipodi:nodetypes="cc" />
        <path
           fill="none"
           stroke="#000000"
           stroke-linecap="round"
           stroke-linejoin="round"
           stroke-miterlimit="10"
           stroke-width="2.0863"
           d="M 21.8926,30.0285"
           id="path12" />
        <path
           fill="none"
           stroke="#000000"
           stroke-linecap="round"
           stroke-linejoin="round"
           stroke-miterlimit="10"
           stroke-width="2.0863"
           d="M 20.9453,44.2726"
           id="path14" />
        <path
           fill="none"
           stroke="#000000"
           stroke-linecap="round"
           stroke-linejoin="round"
           stroke-miterlimit="10"
           stroke-width="2.0863"
           d="M 33.8974,48.8332"
           id="path16-7" />
        <path
           fill="none"
           stroke="#000000"
           stroke-linecap="round"
           stroke-linejoin="round"
           stroke-miterlimit="10"
           stroke-width="2.0863"
           d="M 24.3999,39.3357"
           id="path18" />
        <path
           fill="none"
           stroke="#000000"
           stroke-linecap="round"
           stroke-linejoin="round"
           stroke-miterlimit="10"
           stroke-width="2.0863"
           d="M 24.3511,39.4065"
           id="path20-0" />
        <path
           fill="none"
           stroke="#000000"
           stroke-linecap="round"
           stroke-linejoin="round"
           stroke-miterlimit="10"
           stroke-width="2.0863"
           d="M 33.8788,48.9342"
           id="path22-9" />
        <path
           fill="none"
           stroke="#000000"
           stroke-linecap="round"
           stroke-linejoin="round"
           stroke-miterlimit="10"
           stroke-width="2.0863"
           d="M 24.1008,39.1562"
           id="path24" />
        <path
           fill="none"
           stroke="#000000"
           stroke-linecap="round"
           stroke-linejoin="round"
           stroke-miterlimit="10"
           stroke-width="2"
           d="M 45.8565,36.851 C 38.8077,43.3665 33.3797,47.2823 29.9862,49.4583 l -7.6389,-7.6751 c 2.1789,-3.3949 6.0918,-8.8147 12.5932,-15.8482 4.7694,-5.1598 9.7635,-9.9137 13.8015,-12.4485 2.9438,-1.8479 6.597,-1.5717 8.8659,0.6971 v 0 c 2.2688,2.2688 2.5449,5.9222 0.697,8.8659 -2.5347,4.038 -7.2887,9.0321 -12.4484,13.8015"
           id="path26"
           style="stroke-width:2.45345175;stroke-miterlimit:10;stroke-dasharray:none" />
        <line
           x1="27.430401"
           x2="36.569099"
           y1="35.256901"
           y2="44.395802"
           fill="none"
           stroke="#000000"
           stroke-linecap="round"
           stroke-linejoin="round"
           stroke-miterlimit="10"
           stroke-width="2"
           id="line30"
           style="stroke-width:2.45345175;stroke-miterlimit:10;stroke-dasharray:none" />
        <path
           style="fill:#b1cc33;fill-opacity:1;stroke:#000000;stroke-width:2.5561;stroke-linecap:round;stroke-linejoin:round;stroke-miterlimit:4;stroke-dasharray:none;stroke-opacity:1"
           d="m 15.716045,35.332615 20.113706,20.113706 c 0,0 -7.444678,7.501606 -9.56164,8.729145 -3.0781,1.784863 -8.452894,0.733987 -8.452894,0.733987 L 13.347855,60.442092 12.565418,59.659654 11.62411,58.718347 -4.132385,42.961852 c 0,0 7.6446351,1.201709 10.1271273,-0.326229 2.4824922,-1.527934 9.7213027,-7.303008 9.7213027,-7.303008 z"
           id="path1696"
           sodipodi:nodetypes="ccscccccsc" />
        <path
           style="fill:none;stroke:#000000;stroke-width:2.5561;stroke-linecap:round;stroke-linejoin:miter;stroke-miterlimit:4;stroke-dasharray:none;stroke-opacity:1"
           d="m 12.53383,59.111974 c 0,0 5.027362,0.590789 9.322796,-3.883747"
           id="path1698"
           sodipodi:nodetypes="cc" />
        <path
           style="fill:none;stroke:#000000;stroke-width:2.5561;stroke-linecap:round;stroke-linejoin:miter;stroke-miterlimit:4;stroke-dasharray:none;stroke-opacity:1"
           d="m 6.2797405,52.704167 c 0,0 2.1936701,0.458737 3.8436185,-1.95295"
           id="path1698-6"
           sodipodi:nodetypes="cc" />
      </g>
      <path
         style="fill:#b1cc33;fill-opacity:1;stroke:#000000;stroke-width:2.66305;stroke-linecap:square;stroke-linejoin:round;stroke-miterlimit:4;stroke-dasharray:none;stroke-opacity:1"
         d="m 9.2166685,60.227989 c -0.095801,4.362979 -1.9939878,7.447589 -2.6315996,9.365448 -1.0332148,3.107784 0.313296,5.560995 2.3351015,5.560995 2.0218056,0 3.4769166,-2.358398 2.6407906,-5.715391 C 11.070479,67.469785 9.1671669,64.88505 9.2166685,60.227989 Z"
         id="path1761"
         sodipodi:nodetypes="csssc" />
    </g>
  </g>
  <g
     id="hair" />
  <g
     id="skin" />
  <g
     id="skin-shadow" />
  <g
     id="line"
     transform="matrix(-0.98803935,-0.33046617,-0.33046617,0.98803935,83.266308,19.023811)">
    <path
       fill="none"
       stroke="#000000"
       stroke-linecap="round"
       stroke-linejoin="round"
       stroke-miterlimit="10"
       stroke-width="1.5597"
       d="M 25.456,30.229"
       id="path16" />
    <polyline
       fill="none"
       stroke="#000000"
       stroke-linecap="round"
       stroke-linejoin="round"
       stroke-miterlimit="10"
       stroke-width="1.5597"
       points="20.382,26.3985 14.0939,15.9336 11.0157,14.8931 12.1468,25.0383"
       id="polyline18" />
    <path
       fill="none"
       stroke="#000000"
       stroke-linecap="round"
       stroke-linejoin="round"
       stroke-miterlimit="10"
       stroke-width="1.5597"
       d="M 20.5745,27.9556"
       id="path20" />
    <path
       fill="none"
       stroke="#000000"
       stroke-linecap="round"
       stroke-linejoin="round"
       stroke-miterlimit="10"
       stroke-width="1.5597"
       d="M 12.3393,26.5955"
       id="path22" />
    <polyline
       fill="none"
       stroke="#000000"
       stroke-linecap="round"
       stroke-linejoin="round"
       stroke-miterlimit="10"
       stroke-width="1.5597"
       points="44.2447,39.3708 26.1047,22.6204 23.5352,22.5103 33.0704,37.5285"
       id="polyline24" />
    <circle
       cx="32.452599"
       cy="44.1922"
       transform="matrix(0.3202,-0.9473,0.9473,0.3202,-19.8042,60.7858)"
       fill="#000000"
       stroke="none"
       id="ellipse26"
       r="2" />
    <circle
       cx="37.772301"
       cy="45.770401"
       transform="matrix(0.3202,-0.9473,0.9473,0.3202,-17.683,66.8983)"
       fill="#000000"
       stroke="none"
       id="ellipse28"
       r="2" />
    <path
       fill="none"
       stroke="#000000"
       stroke-linecap="round"
       stroke-linejoin="round"
       stroke-miterlimit="10"
       stroke-width="1.5597"
       d="m 43.2603,34.3292 11.4341,3.2856 c 1.4513,0.417 2.7953,1.1264 3.9549,2.0935 2.86,2.3851 7.6527,6.8448 4.2739,7.425 -4.6427,0.7974 -27.5488,-6.0191 -34.2447,-8.128 -6.6958,-2.109 -13.907,-6.0905 -18.4097,-9.4641 -3.941,-2.9527 2.243,-1.9172 2.243,-1.9172 0,0 7.116,1.0479 10.0418,1.7994 l 2.9414,0.7554"
       id="path30" />
  </g>
</svg>
